horizon1994-small.ufo
<glyph name="exclam" format="2">
  <advance width="1000"/>
  <unicode hex="0021"/>
  <outline>
    <contour>
      <point x="500" y="250" type="line"/>
      <point x="250" y="250" type="line"/>
      <point x="250" y="375" type="line"/>
      <point x="125" y="375" type="line"/>
      <point x="125" y="750" type="line"/>
      <point x="250" y="750" type="line"/>
      <point x="250" y="875" type="line"/>
      <point x="500" y="875" type="line"/>
      <point x="500" y="750" type="line"/>
      <point x="625" y="750" type="line"/>
      <point x="625" y="375" type="line"/>
      <point x="500" y="375" type="line"/>
    </contour>
    <contour>
      <point x="250" y="125" type="line"/>
      <point x="500" y="125" type="line"/>
      <point x="500" y="0" type="line"/>
      <point x="250" y="0" type="line"/>
    </contour>
  </outline>
</glyph>
<glyph name="quotesingle" format="2">
  <advance width="1000"/>
  <unicode hex="0027"/>
  <outline>
    <contour>
      <point x="375" y="875" type="line"/>
      <point x="375" y="625" type="line"/>
      <point x="250" y="625" type="line"/>
      <point x="250" y="500" type="line"/>
      <point x="0" y="500" type="line"/>
      <point x="0" y="625" type="line"/>
      <point x="125" y="625" type="line"/>
      <point x="125" y="875" type="line"/>
    </contour>
  </outline>
</glyph>
<glyph name="comma" format="2">
  <advance width="1000"/>
  <unicode hex="002C"/>
  <outline>
    <contour>
      <point x="125" y="0" type="line"/>
      <point x="250" y="0" type="line"/>
      <point x="250" y="125" type="line"/>
      <point x="250" y="250" type="line"/>
      <point x="500" y="250" type="line"/>
      <point x="500" y="125" type="line"/>
      <point x="500" y="0" type="line"/>
      <point x="375" y="0" type="line"/>
      <point x="375" y="-125" type="line"/>
      <point x="125" y="-125" type="line"/>
    </contour>
  </outline>
</glyph>
<glyph name="hyphen" format="2">
  <advance width="1000"/>
  <unicode hex="002D"/>
  <outline>
    <contour>
      <point x="0" y="375" type="line"/>
      <point x="0" y="500" type="line"/>
      <point x="750" y="500" type="line"/>
      <point x="750" y="375" type="line"/>
    </contour>
  </outline>
</glyph>
<glyph name="colon" format="2">
  <advance width="1000"/>
  <unicode hex="003A"/>
  <outline>
    <contour>
      <point x="500" y="500" type="line"/>
      <point x="250" y="500" type="line"/>
      <point x="250" y="750" type="line"/>
      <point x="500" y="750" type="line"/>
    </contour>
    <contour>
      <point x="250" y="0" type="line"/>
      <point x="250" y="250" type="line"/>
      <point x="500" y="250" type="line"/>
      <point x="500" y="0" type="line"/>
    </contour>
  </outline>
</glyph>
<glyph name="equal" format="2">
  <advance width="1000"/>
  <unicode hex="003D"/>
  <outline>
    <contour>
      <point x="750" y="625" type="line"/>
      <point x="750" y="500" type="line"/>
      <point x="0" y="500" type="line"/>
      <point x="0" y="625" type="line"/>
    </contour>
    <contour>
      <point x="750" y="250" type="line"/>
      <point x="750" y="125" type="line"/>
      <point x="375" y="125" type="line"/>
      <point x="0" y="125" type="line"/>
      <point x="0" y="250" type="line"/>
      <point x="125" y="250" type="line"/>
    </contour>
  </outline>
</glyph>
<glyph name="H" format="2">
  <advance width="1000"/>
  <unicode hex="0048"/>
  <outline>
    <contour>
      <point x="750" y="875" type="line"/>
      <point x="750" y="0" type="line"/>
      <point x="500" y="0" type="line"/>
      <point x="500" y="375" type="line"/>
      <point x="250" y="375" type="line"/>
      <point x="250" y="0" type="line"/>
      <point x="0" y="0" type="line"/>
      <point x="0" y="875" type="line"/>
      <point x="250" y="875" type="line"/>
      <point x="250" y="500" type="line"/>
      <point x="500" y="500" type="line"/>
      <point x="500" y="875" type="line"/>
    </contour>
  </outline>
</glyph>
<glyph name="L" format="2">
  <advance width="1000"/>
  <unicode hex="004C"/>
  <outline>
    <contour>
      <point x="375" y="875" type="line"/>
      <point x="375" y="125" type="line"/>
      <point x="875" y="125" type="line"/>
      <point x="875" y="0" type="line"/>
      <point x="125" y="0" type="line"/>
      <point x="125" y="500" type="line"/>
      <point x="125" y="875" type="line"/>
    </contour>
  </outline>
</glyph>
<glyph name="T" format="2">
  <advance width="1000"/>
  <unicode hex="0054"/>
  <outline>
    <contour>
      <point x="0" y="750" type="line"/>
      <point x="0" y="875" type="line"/>
      <point x="750" y="875" type="line"/>
      <point x="750" y="750" type="line"/>
      <point x="500" y="750" type="line"/>
      <point x="500" y="0" type="line"/>
      <point x="250" y="0" type="line"/>
      <point x="250" y="750" type="line"/>
    </contour>
  </outline>
</glyph>
<glyph name="U" format="2">
  <advance width="1000"/>
  <unicode hex="0055"/>
  <outline>
    <contour>
      <point x="750" y="875" type="line"/>
      <point x="750" y="0" type="line"/>
      <point x="0" y="0" type="line"/>
      <point x="0" y="875" type="line"/>
      <point x="250" y="875" type="line"/>
      <point x="250" y="375" type="line"/>
      <point x="250" y="125" type="line"/>
      <point x="500" y="125" type="line"/>
      <point x="500" y="500" type="line"/>
      <point x="500" y="875" type="line"/>
    </contour>
  </outline>
</glyph>
<glyph name="V" format="2">
  <advance width="1000"/>
  <unicode hex="0056"/>
  <outline>
    <contour>
      <point x="125" y="125" type="line"/>
      <point x="125" y="250" type="line"/>
      <point x="0" y="250" type="line"/>
      <point x="0" y="875" type="line"/>
      <point x="250" y="875" type="line"/>
      <point x="250" y="250" type="line"/>
      <point x="500" y="250" type="line"/>
      <point x="500" y="875" type="line"/>
      <point x="750" y="875" type="line"/>
      <point x="750" y="250" type="line"/>
      <point x="625" y="250" type="line"/>
      <point x="625" y="125" type="line"/>
      <point x="500" y="125" type="line"/>
      <point x="500" y="0" type="line"/>
      <point x="250" y="0" type="line"/>
      <point x="250" y="125" type="line"/>
    </contour>
  </outline>
</glyph>
<glyph name="W" format="2">
  <advance width="1000"/>
  <unicode hex="0057"/>
  <outline>
    <contour>
      <point x="625" y="875" type="line"/>
      <point x="875" y="875" type="line"/>
      <point x="875" y="0" type="line"/>
      <point x="625" y="0" type="line"/>
      <point x="625" y="125" type="line"/>
      <point x="500" y="125" type="line"/>
      <point x="500" y="250" type="line"/>
      <point x="375" y="250" type="line"/>
      <point x="375" y="125" type="line"/>
      <point x="250" y="125" type="line"/>
      <point x="250" y="0" type="line"/>
      <point x="0" y="0" type="line"/>
      <point x="0" y="875" type="line"/>
      <point x="250" y="875" type="line"/>
      <point x="250" y="375" type="line"/>
      <point x="375" y="375" type="line"/>
      <point x="375" y="500" type="line"/>
      <point x="500" y="500" type="line"/>
      <point x="500" y="375" type="line"/>
      <point x="625" y="375" type="line"/>
    </contour>
  </outline>
</glyph>
<glyph name="grave" format="2">
  <advance width="1000"/>
  <unicode hex="0060"/>
  <outline>
    <contour>
      <point x="500" y="875" type="line"/>
      <point x="500" y="625" type="line"/>
      <point x="625" y="625" type="line"/>
      <point x="625" y="500" type="line"/>
      <point x="375" y="500" type="line"/>
      <point x="375" y="625" type="line"/>
      <point x="250" y="625" type="line"/>
      <point x="250" y="875" type="line"/>
    </contour>
  </outline>
</glyph>
<glyph name="n" format="2">
  <advance width="1000"/>
  <unicode hex="006E"/>
  <outline>
    <contour>
      <point x="0" y="0" type="line"/>
      <point x="0" y="625" type="line"/>
      <point x="625" y="625" type="line"/>
      <point x="625" y="500" type="line"/>
      <point x="750" y="500" type="line"/>
      <point x="750" y="0" type="line"/>
      <point x="500" y="0" type="line"/>
      <point x="500" y="500" type="line"/>
      <point x="250" y="500" type="line"/>
      <point x="250" y="0" type="line"/>
    </contour>
  </outline>
</glyph>
<glyph name="s" format="2">
  <advance width="1000"/>
  <unicode hex="0073"/>
  <outline>
    <contour>
      <point x="250" y="500" type="line"/>
      <point x="250" y="375" type="line"/>
      <point x="625" y="375" type="line"/>
      <point x="625" y="250" type="line"/>
      <point x="750" y="250" type="line"/>
      <point x="750" y="125" type="line"/>
      <point x="625" y="125" type="line"/>
      <point x="625" y="0" type="line"/>
      <point x="0" y="0" type="line"/>
      <point x="0" y="125" type="line"/>
      <point x="500" y="125" type="line"/>
      <point x="500" y="250" type="line"/>
      <point x="125" y="250" type="line"/>
      <point x="125" y="375" type="line"/>
      <point x="0" y="375" type="line"/>
      <point x="0" y="500" type="line"/>
      <point x="125" y="500" type="line"/>
      <point x="125" y="625" type="line"/>
      <point x="375" y="625" type="line"/>
      <point x="750" y="625" type="line"/>
      <point x="750" y="500" type="line"/>
    </contour>
  </outline>
</glyph>
<glyph name="bar" format="2">
  <advance width="1000"/>
  <unicode hex="007C"/>
  <outline>
    <contour>
      <point x="375" y="500" type="line"/>
      <point x="375" y="875" type="line"/>
      <point x="625" y="875" type="line"/>
      <point x="625" y="500" type="line"/>
    </contour>
    <contour>
      <point x="375" y="375" type="line"/>
      <point x="625" y="375" type="line"/>
      <point x="625" y="0" type="line"/>
      <point x="375" y="0" type="line"/>
    </contour>
  </outline>
</glyph>
<glyph name="braceright" format="2">
  <advance width="1000"/>
  <unicode hex="007D"/>
  <outline>
    <contour>
      <point x="125" y="125" type="line"/>
      <point x="250" y="125" type="line"/>
      <point x="250" y="375" type="line"/>
      <point x="375" y="375" type="line"/>
      <point x="375" y="500" type="line"/>
      <point x="250" y="500" type="line"/>
      <point x="250" y="750" type="line"/>
      <point x="0" y="750" type="line"/>
      <point x="0" y="875" type="line"/>
      <point x="375" y="875" type="line"/>
      <point x="375" y="750" type="line"/>
      <point x="500" y="750" type="line"/>
      <point x="500" y="625" type="line"/>
      <point x="500" y="500" type="line"/>
      <point x="750" y="500" type="line"/>
      <point x="750" y="375" type="line"/>
      <point x="500" y="375" type="line"/>
      <point x="500" y="125" type="line"/>
      <point x="375" y="125" type="line"/>
      <point x="375" y="0" type="line"/>
      <point x="125" y="0" type="line"/>
      <point x="0" y="0" type="line"/>
      <point x="0" y="125" type="line"/>
    </contour>
  </outline>
</glyph>
<glyph name="sterling" format="2">
  <advance width="1000"/>
  <unicode hex="00A3"/>
  <outline>
    <contour>
      <point x="750" y="625" type="line"/>
      <point x="750" y="500" type="line"/>
      <point x="625" y="500" type="line"/>
      <point x="625" y="625" type="line"/>
      <point x="500" y="625" type="line"/>
      <point x="500" y="750" type="line"/>
      <point x="375" y="750" type="line"/>
      <point x="375" y="500" type="line"/>
      <point x="500" y="500" type="line"/>
      <point x="500" y="375" type="line"/>
      <point x="375" y="375" type="line"/>
      <point x="375" y="250" type="line"/>
      <point x="375" y="125" type="line"/>
      <point x="625" y="125" type="line"/>
      <point x="625" y="250" type="line"/>
      <point x="875" y="250" type="line"/>
      <point x="875" y="125" type="line"/>
      <point x="750" y="125" type="line"/>
      <point x="750" y="0" type="line"/>
      <point x="0" y="0" type="line"/>
      <point x="0" y="250" type="line"/>
      <point x="125" y="250" type="line"/>
      <point x="125" y="375" type="line"/>
      <point x="0" y="375" type="line"/>
      <point x="0" y="500" type="line"/>
      <point x="125" y="500" type="line"/>
      <point x="125" y="750" type="line"/>
      <point x="250" y="750" type="line"/>
      <point x="250" y="875" type="line"/>
      <point x="625" y="875" type="line"/>
      <point x="625" y="750" type="line"/>
      <point x="750" y="750" type="line"/>
    </contour>
  </outline>
</glyph>
<glyph name="logicalnot" format="2">
  <advance width="1000"/>
  <unicode hex="00AC"/>
  <outline>
    <contour>
      <point x="0" y="500" type="line"/>
      <point x="750" y="500" type="line"/>
      <point x="750" y="125" type="line"/>
      <point x="500" y="125" type="line"/>
      <point x="500" y="375" type="line"/>
      <point x="250" y="375" type="line"/>
      <point x="0" y="375" type="line"/>
    </contour>
  </outline>
</glyph>
<glyph name="uni00B2" format="2">
  <advance width="1000"/>
  <unicode hex="00B2"/>
  <outline>
    <contour>
      <point x="375" y="500" type="line"/>
      <point x="375" y="375" type="line"/>
      <point x="625" y="375" type="line"/>
      <point x="625" y="250" type="line"/>
      <point x="125" y="250" type="line"/>
      <point x="125" y="500" type="line"/>
      <point x="250" y="500" type="line"/>
      <point x="250" y="625" type="line"/>
      <point x="375" y="625" type="line"/>
      <point x="375" y="750" type="line"/>
      <point x="125" y="750" type="line"/>
      <point x="125" y="875" type="line"/>
      <point x="500" y="875" type="line"/>
      <point x="500" y="750" type="line"/>
      <point x="625" y="750" type="line"/>
      <point x="625" y="625" type="line"/>
      <point x="500" y="625" type="line"/>
      <point x="500" y="500" type="line"/>
    </contour>
  </outline>
</glyph>
<glyph name="onehalf" format="2">
  <advance width="1000"/>
  <unicode hex="00BD"/>
  <outline>
    <contour>
      <point x="1000" y="0" type="line"/>
      <point x="1000" y="-125" type="line"/>
      <point x="750" y="-125" type="line"/>
      <point x="500" y="-125" type="line"/>
      <point x="500" y="125" type="line"/>
      <point x="625" y="125" type="line"/>
      <point x="625" y="250" type="line"/>
      <point x="750" y="250" type="line"/>
      <point x="750" y="375" type="line"/>
      <point x="500" y="375" type="line"/>
      <point x="500" y="250" type="line"/>
      <point x="375" y="250" type="line"/>
      <point x="375" y="125" type="line"/>
      <point x="250" y="125" type="line"/>
      <point x="250" y="0" type="line"/>
      <point x="0" y="0" type="line"/>
      <point x="0" y="125" type="line"/>
      <point x="125" y="125" type="line"/>
      <point x="125" y="250" type="line"/>
      <point x="250" y="250" type="line"/>
      <point x="250" y="375" type="line"/>
      <point x="375" y="375" type="line"/>
      <point x="375" y="500" type="line"/>
      <point x="500" y="500" type="line"/>
      <point x="500" y="625" type="line"/>
      <point x="625" y="625" type="line"/>
      <point x="625" y="750" type="line"/>
      <point x="750" y="750" type="line"/>
      <point x="750" y="875" type="line"/>
      <point x="1000" y="875" type="line"/>
      <point x="1000" y="750" type="line"/>
      <point x="875" y="750" type="line"/>
      <point x="875" y="625" type="line"/>
      <point x="750" y="625" type="line"/>
      <point x="750" y="500" type="line"/>
      <point x="875" y="500" type="line"/>
      <point x="875" y="375" type="line"/>
      <point x="1000" y="375" type="line"/>
      <point x="1000" y="250" type="line"/>
      <point x="875" y="250" type="line"/>
      <point x="875" y="125" type="line"/>
      <point x="750" y="125" type="line"/>
      <point x="750" y="0" type="line"/>
    </contour>
    <contour>
      <point x="250" y="375" type="line"/>
      <point x="0" y="375" type="line"/>
      <point x="0" y="750" type="line"/>
      <point x="0" y="875" type="line"/>
      <point x="250" y="875" type="line"/>
      <point x="250" y="750" type="line"/>
    </contour>
  </outline>
</glyph>
<glyph name="aring" format="2">
  <advance width="1000"/>
  <unicode hex="00E5"/>
  <outline>
    <contour>
      <point x="875" y="0" type="line"/>
      <point x="125" y="0" type="line"/>
      <point x="125" y="125" type="line"/>
      <point x="0" y="125" type="line"/>
      <point x="0" y="250" type="line"/>
      <point x="125" y="250" type="line"/>
      <point x="125" y="375" type="line"/>
      <point x="500" y="375" type="line"/>
      <point x="500" y="500" type="line"/>
      <point x="125" y="500" type="line"/>
      <point x="125" y="625" type="line"/>
      <point x="250" y="625" type="line"/>
      <point x="250" y="875" type="line"/>
      <point x="500" y="875" type="line"/>
      <point x="500" y="625" type="line"/>
      <point x="625" y="625" type="line"/>
      <point x="625" y="500" type="line"/>
      <point x="750" y="500" type="line"/>
      <point x="750" y="125" type="line"/>
      <point x="875" y="125" type="line"/>
    </contour>
    <contour>
      <point x="500" y="250" type="line"/>
      <point x="250" y="250" type="line"/>
      <point x="250" y="125" type="line"/>
      <point x="500" y="125" type="line"/>
    </contour>
  </outline>
</glyph>
<glyph name="ae" format="2">
  <advance width="1000"/>
  <unicode hex="00E6"/>
  <outline>
    <contour>
      <point x="1000" y="625" type="line"/>
      <point x="1000" y="500" type="line"/>
      <point x="750" y="500" type="line"/>
      <point x="750" y="375" type="line"/>
      <point x="1000" y="375" type="line"/>
      <point x="1000" y="250" type="line"/>
      <point x="750" y="250" type="line"/>
      <point x="750" y="125" type="line"/>
      <point x="1000" y="125" type="line"/>
      <point x="1000" y="0" type="line"/>
      <point x="125" y="0" type="line"/>
      <point x="125" y="125" type="line"/>
      <point x="0" y="125" type="line"/>
      <point x="0" y="250" type="line"/>
      <point x="125" y="250" type="line"/>
      <point x="125" y="375" type="line"/>
      <point x="500" y="375" type="line"/>
      <point x="500" y="500" type="line"/>
      <point x="125" y="500" type="line"/>
      <point x="125" y="625" type="line"/>
    </contour>
    <contour>
      <point x="500" y="250" type="line"/>
      <point x="250" y="250" type="line"/>
      <point x="250" y="125" type="line"/>
      <point x="500" y="125" type="line"/>
    </contour>
  </outline>
</glyph>
<glyph name="ugrave" format="2">
  <advance width="1000"/>
  <unicode hex="00F9"/>
  <outline>
    <contour>
      <point x="0" y="500" type="line"/>
      <point x="250" y="500" type="line"/>
      <point x="250" y="125" type="line"/>
      <point x="500" y="125" type="line"/>
      <point x="500" y="500" type="line"/>
      <point x="750" y="500" type="line"/>
      <point x="750" y="125" type="line"/>
      <point x="875" y="125" type="line"/>
      <point x="875" y="0" type="line"/>
      <point x="500" y="0" type="line"/>
      <point x="125" y="0" type="line"/>
      <point x="125" y="125" type="line"/>
      <point x="0" y="125" type="line"/>
    </contour>
    <contour>
      <point x="375" y="750" type="line"/>
      <point x="375" y="625" type="line"/>
      <point x="0" y="625" type="line"/>
      <point x="0" y="750" type="line"/>
    </contour>
  </outline>
</glyph>
<glyph name="Gamma" format="2">
  <advance width="1000"/>
  <unicode hex="0393"/>
  <outline>
    <contour>
      <point x="625" y="500" type="line"/>
      <point x="500" y="500" type="line"/>
      <point x="500" y="625" type="line"/>
      <point x="375" y="625" type="line"/>
      <point x="250" y="625" type="line"/>
      <point x="250" y="375" type="line"/>
      <point x="250" y="0" type="line"/>
      <point x="0" y="0" type="line"/>
      <point x="0" y="125" type="line"/>
      <point x="0" y="375" type="line"/>
      <point x="0" y="750" type="line"/>
      <point x="125" y="750" type="line"/>
      <point x="500" y="750" type="line"/>
      <point x="750" y="750" type="line"/>
      <point x="750" y="500" type="line"/>
    </contour>
  </outline>
</glyph>
<glyph name="pi" format="2">
  <advance width="1000"/>
  <unicode hex="03C0"/>
  <outline>
    <contour>
      <point x="125" y="625" type="line"/>
      <point x="0" y="625" type="line"/>
      <point x="0" y="750" type="line"/>
      <point x="875" y="750" type="line"/>
      <point x="875" y="625" type="line"/>
      <point x="750" y="625" type="line"/>
      <point x="750" y="0" type="line"/>
      <point x="500" y="0" type="line"/>
      <point x="500" y="625" type="line"/>
      <point x="375" y="625" type="line"/>
      <point x="375" y="0" type="line"/>
      <point x="125" y="0" type="line"/>
    </contour>
  </outline>
</glyph>
<glyph name="peseta" format="2">
  <advance width="1000"/>
  <unicode hex="20A7"/>
  <outline>
    <contour>
      <point x="750" y="500" type="line"/>
      <point x="625" y="500" type="line"/>
      <point x="625" y="375" type="line"/>
      <point x="250" y="375" type="line"/>
      <point x="250" y="-125" type="line"/>
      <point x="0" y="-125" type="line"/>
      <point x="0" y="875" type="line"/>
      <point x="625" y="875" type="line"/>
      <point x="625" y="750" type="line"/>
      <point x="750" y="750" type="line"/>
    </contour>
    <contour>
      <point x="500" y="750" type="line"/>
      <point x="250" y="750" type="line"/>
      <point x="250" y="500" type="line"/>
      <point x="500" y="500" type="line"/>
    </contour>
    <contour>
      <point x="1000" y="0" type="line"/>
      <point x="1000" y="-125" type="line"/>
      <point x="750" y="-125" type="line"/>
      <point x="625" y="-125" type="line"/>
      <point x="625" y="125" type="line"/>
      <point x="500" y="125" type="line"/>
      <point x="500" y="250" type="line"/>
      <point x="625" y="250" type="line"/>
      <point x="625" y="375" type="line"/>
      <point x="750" y="375" type="line"/>
      <point x="750" y="500" type="line"/>
      <point x="875" y="500" type="line"/>
      <point x="875" y="375" type="line"/>
      <point x="875" y="250" type="line"/>
      <point x="1000" y="250" type="line"/>
      <point x="1000" y="125" type="line"/>
      <point x="875" y="125" type="line"/>
      <point x="875" y="0" type="line"/>
    </contour>
  </outline>
</glyph>
<glyph name="arrowright" format="2">
  <advance width="1000"/>
  <unicode hex="2192"/>
  <outline>
    <contour>
      <point x="0" y="500" type="line"/>
      <point x="500" y="500" type="line"/>
      <point x="500" y="625" type="line"/>
      <point x="375" y="625" type="line"/>
      <point x="375" y="750" type="line"/>
      <point x="500" y="750" type="line"/>
      <point x="625" y="750" type="line"/>
      <point x="625" y="625" type="line"/>
      <point x="750" y="625" type="line"/>
      <point x="750" y="500" type="line"/>
      <point x="875" y="500" type="line"/>
      <point x="875" y="375" type="line"/>
      <point x="750" y="375" type="line"/>
      <point x="750" y="250" type="line"/>
      <point x="625" y="250" type="line"/>
      <point x="625" y="125" type="line"/>
      <point x="375" y="125" type="line"/>
      <point x="375" y="250" type="line"/>
      <point x="500" y="250" type="line"/>
      <point x="500" y="375" type="line"/>
      <point x="375" y="375" type="line"/>
      <point x="0" y="375" type="line"/>
    </contour>
  </outline>
</glyph>
<glyph name="arrowdown" format="2">
  <advance width="1000"/>
  <unicode hex="2193"/>
  <outline>
    <contour>
      <point x="250" y="375" type="line"/>
      <point x="375" y="375" type="line"/>
      <point x="375" y="875" type="line"/>
      <point x="625" y="875" type="line"/>
      <point x="625" y="375" type="line"/>
      <point x="875" y="375" type="line"/>
      <point x="875" y="250" type="line"/>
      <point x="750" y="250" type="line"/>
      <point x="750" y="125" type="line"/>
      <point x="625" y="125" type="line"/>
      <point x="625" y="0" type="line"/>
      <point x="375" y="0" type="line"/>
      <point x="375" y="125" type="line"/>
      <point x="250" y="125" type="line"/>
      <point x="250" y="250" type="line"/>
      <point x="125" y="250" type="line"/>
      <point x="125" y="375" type="line"/>
    </contour>
  </outline>
</glyph>
<glyph name="uni2219" format="2">
  <advance width="1000"/>
  <unicode hex="2219"/>
  <outline>
    <contour>
      <point x="375" y="250" type="line"/>
      <point x="375" y="500" type="line"/>
      <point x="625" y="500" type="line"/>
      <point x="625" y="250" type="line"/>
    </contour>
  </outline>
</glyph>
<glyph name="orthogonal" format="2">
  <advance width="1000"/>
  <unicode hex="221F"/>
  <outline>
    <contour>
      <point x="875" y="250" type="line"/>
      <point x="875" y="125" type="line"/>
      <point x="750" y="125" type="line"/>
      <point x="0" y="125" type="line"/>
      <point x="0" y="625" type="line"/>
      <point x="250" y="625" type="line"/>
      <point x="250" y="250" type="line"/>
    </contour>
  </outline>
</glyph>
<glyph name="intersection" format="2">
  <advance width="1000"/>
  <unicode hex="2229"/>
  <outline>
    <contour>
      <point x="750" y="0" type="line"/>
      <point x="500" y="0" type="line"/>
      <point x="500" y="500" type="line"/>
      <point x="500" y="750" type="line"/>
      <point x="250" y="750" type="line"/>
      <point x="250" y="500" type="line"/>
      <point x="250" y="0" type="line"/>
      <point x="0" y="0" type="line"/>
      <point x="0" y="500" type="line"/>
      <point x="0" y="750" type="line"/>
      <point x="125" y="750" type="line"/>
      <point x="125" y="875" type="line"/>
      <point x="625" y="875" type="line"/>
      <point x="625" y="750" type="line"/>
      <point x="750" y="750" type="line"/>
    </contour>
  </outline>
</glyph>
<glyph name="equivalence" format="2">
  <advance width="1000"/>
  <unicode hex="2261"/>
  <outline>
    <contour>
      <point x="750" y="750" type="line"/>
      <point x="750" y="625" type="line"/>
      <point x="0" y="625" type="line"/>
      <point x="0" y="750" type="line"/>
    </contour>
    <contour>
      <point x="0" y="375" type="line"/>
      <point x="0" y="500" type="line"/>
      <point x="750" y="500" type="line"/>
      <point x="750" y="375" type="line"/>
    </contour>
    <contour>
      <point x="750" y="250" type="line"/>
      <point x="750" y="125" type="line"/>
      <point x="375" y="125" type="line"/>
      <point x="0" y="125" type="line"/>
      <point x="0" y="250" type="line"/>
      <point x="125" y="250" type="line"/>
    </contour>
  </outline>
</glyph>
<glyph name="revlogicalnot" format="2">
  <advance width="1000"/>
  <unicode hex="2310"/>
  <outline>
    <contour>
      <point x="0" y="500" type="line"/>
      <point x="750" y="500" type="line"/>
      <point x="750" y="375" type="line"/>
      <point x="250" y="375" type="line"/>
      <point x="250" y="125" type="line"/>
      <point x="125" y="125" type="line"/>
      <point x="0" y="125" type="line"/>
    </contour>
  </outline>
</glyph>
<glyph name="SF110000" format="2">
  <advance width="1000"/>
  <unicode hex="2502"/>
  <outline>
    <contour>
      <point x="625" y="875" type="line"/>
      <point x="625" y="-125" type="line"/>
      <point x="375" y="-125" type="line"/>
      <point x="375" y="875" type="line"/>
    </contour>
  </outline>
</glyph>
<glyph name="SF010000" format="2">
  <advance width="1000"/>
  <unicode hex="250C"/>
  <outline>
    <contour>
      <point x="1000" y="375" type="line"/>
      <point x="1000" y="250" type="line"/>
      <point x="875" y="250" type="line"/>
      <point x="625" y="250" type="line"/>
      <point x="625" y="-125" type="line"/>
      <point x="500" y="-125" type="line"/>
      <point x="375" y="-125" type="line"/>
      <point x="375" y="375" type="line"/>
      <point x="875" y="375" type="line"/>
    </contour>
  </outline>
</glyph>
<glyph name="SF030000" format="2">
  <advance width="1000"/>
  <unicode hex="2510"/>
  <outline>
    <contour>
      <point x="625" y="375" type="line"/>
      <point x="625" y="-125" type="line"/>
      <point x="375" y="-125" type="line"/>
      <point x="375" y="250" type="line"/>
      <point x="0" y="250" type="line"/>
      <point x="0" y="375" type="line"/>
    </contour>
  </outline>
</glyph>
<glyph name="SF060000" format="2">
  <advance width="1000"/>
  <unicode hex="252C"/>
  <outline>
    <contour>
      <point x="1000" y="375" type="line"/>
      <point x="1000" y="250" type="line"/>
      <point x="625" y="250" type="line"/>
      <point x="625" y="-125" type="line"/>
      <point x="375" y="-125" type="line"/>
      <point x="375" y="250" type="line"/>
      <point x="0" y="250" type="line"/>
      <point x="0" y="375" type="line"/>
    </contour>
  </outline>
</glyph>
<glyph name="SF430000" format="2">
  <advance width="1000"/>
  <unicode hex="2550"/>
  <outline>
    <contour>
      <point x="1000" y="625" type="line"/>
      <point x="1000" y="500" type="line"/>
      <point x="0" y="500" type="line"/>
      <point x="0" y="625" type="line"/>
    </contour>
    <contour>
      <point x="1000" y="375" type="line"/>
      <point x="1000" y="250" type="line"/>
      <point x="0" y="250" type="line"/>
      <point x="0" y="375" type="line"/>
    </contour>
  </outline>
</glyph>
<glyph name="SF240000" format="2">
  <advance width="1000"/>
  <unicode hex="2551"/>
  <outline>
    <contour>
      <point x="250" y="875" type="line"/>
      <point x="500" y="875" type="line"/>
      <point x="500" y="-125" type="line"/>
      <point x="250" y="-125" type="line"/>
    </contour>
    <contour>
      <point x="625" y="875" type="line"/>
      <point x="875" y="875" type="line"/>
      <point x="875" y="0" type="line"/>
      <point x="875" y="-125" type="line"/>
      <point x="625" y="-125" type="line"/>
      <point x="625" y="0" type="line"/>
    </contour>
  </outline>
</glyph>
<glyph name="SF520000" format="2">
  <advance width="1000"/>
  <unicode hex="2553"/>
  <outline>
    <contour>
      <point x="250" y="375" type="line"/>
      <point x="1000" y="375" type="line"/>
      <point x="1000" y="250" type="line"/>
      <point x="875" y="250" type="line"/>
      <point x="875" y="-125" type="line"/>
      <point x="625" y="-125" type="line"/>
      <point x="625" y="250" type="line"/>
      <point x="500" y="250" type="line"/>
      <point x="500" y="-125" type="line"/>
      <point x="375" y="-125" type="line"/>
      <point x="250" y="-125" type="line"/>
      <point x="250" y="125" type="line"/>
    </contour>
  </outline>
</glyph>
<glyph name="SF220000" format="2">
  <advance width="1000"/>
  <unicode hex="2555"/>
  <outline>
    <contour>
      <point x="375" y="375" type="line"/>
      <point x="375" y="500" type="line"/>
      <point x="0" y="500" type="line"/>
      <point x="0" y="625" type="line"/>
      <point x="625" y="625" type="line"/>
      <point x="625" y="250" type="line"/>
      <point x="625" y="-125" type="line"/>
      <point x="375" y="-125" type="line"/>
      <point x="375" y="125" type="line"/>
      <point x="375" y="250" type="line"/>
      <point x="0" y="250" type="line"/>
      <point x="0" y="375" type="line"/>
    </contour>
  </outline>
</glyph>
<glyph name="SF250000" format="2">
  <advance width="1000"/>
  <unicode hex="2557"/>
  <outline>
    <contour>
      <point x="625" y="500" type="line"/>
      <point x="0" y="500" type="line"/>
      <point x="0" y="625" type="line"/>
      <point x="875" y="625" type="line"/>
      <point x="875" y="-125" type="line"/>
      <point x="625" y="-125" type="line"/>
    </contour>
    <contour>
      <point x="500" y="375" type="line"/>
      <point x="500" y="-125" type="line"/>
      <point x="250" y="-125" type="line"/>
      <point x="250" y="250" type="line"/>
      <point x="0" y="250" type="line"/>
      <point x="0" y="375" type="line"/>
    </contour>
  </outline>
</glyph>
<glyph name="SF500000" format="2">
  <advance width="1000"/>
  <unicode hex="2558"/>
  <outline>
    <contour>
      <point x="1000" y="625" type="line"/>
      <point x="1000" y="500" type="line"/>
      <point x="625" y="500" type="line"/>
      <point x="625" y="375" type="line"/>
      <point x="1000" y="375" type="line"/>
      <point x="1000" y="250" type="line"/>
      <point x="375" y="250" type="line"/>
      <point x="375" y="875" type="line"/>
      <point x="625" y="875" type="line"/>
      <point x="625" y="625" type="line"/>
    </contour>
  </outline>
</glyph>
<glyph name="SF380000" format="2">
  <advance width="1000"/>
  <unicode hex="255A"/>
  <outline>
    <contour>
      <point x="1000" y="375" type="line"/>
      <point x="1000" y="250" type="line"/>
      <point x="875" y="250" type="line"/>
      <point x="500" y="250" type="line"/>
      <point x="250" y="250" type="line"/>
      <point x="250" y="375" type="line"/>
      <point x="250" y="500" type="line"/>
      <point x="250" y="875" type="line"/>
      <point x="500" y="875" type="line"/>
      <point x="500" y="500" type="line"/>
      <point x="500" y="375" type="line"/>
      <point x="875" y="375" type="line"/>
    </contour>
    <contour>
      <point x="875" y="625" type="line"/>
      <point x="1000" y="625" type="line"/>
      <point x="1000" y="500" type="line"/>
      <point x="625" y="500" type="line"/>
      <point x="625" y="875" type="line"/>
      <point x="875" y="875" type="line"/>
    </contour>
  </outline>
</glyph>
<glyph name="SF270000" format="2">
  <advance width="1000"/>
  <unicode hex="255C"/>
  <outline>
    <contour>
      <point x="625" y="875" type="line"/>
      <point x="875" y="875" type="line"/>
      <point x="875" y="250" type="line"/>
      <point x="0" y="250" type="line"/>
      <point x="0" y="375" type="line"/>
      <point x="250" y="375" type="line"/>
      <point x="250" y="875" type="line"/>
      <point x="500" y="875" type="line"/>
      <point x="500" y="375" type="line"/>
      <point x="625" y="375" type="line"/>
    </contour>
  </outline>
</glyph>
<glyph name="SF370000" format="2">
  <advance width="1000"/>
  <unicode hex="255F"/>
  <outline>
    <contour>
      <point x="625" y="875" type="line"/>
      <point x="875" y="875" type="line"/>
      <point x="875" y="375" type="line"/>
      <point x="1000" y="375" type="line"/>
      <point x="1000" y="250" type="line"/>
      <point x="875" y="250" type="line"/>
      <point x="875" y="-125" type="line"/>
      <point x="625" y="-125" type="line"/>
    </contour>
    <contour>
      <point x="250" y="875" type="line"/>
      <point x="500" y="875" type="line"/>
      <point x="500" y="-125" type="line"/>
      <point x="250" y="-125" type="line"/>
    </contour>
  </outline>
</glyph>
<glyph name="SF190000" format="2">
  <advance width="1000"/>
  <unicode hex="2561"/>
  <outline>
    <contour>
      <point x="375" y="-125" type="line"/>
      <point x="375" y="250" type="line"/>
      <point x="0" y="250" type="line"/>
      <point x="0" y="375" type="line"/>
      <point x="375" y="375" type="line"/>
      <point x="375" y="500" type="line"/>
      <point x="0" y="500" type="line"/>
      <point x="0" y="625" type="line"/>
      <point x="375" y="625" type="line"/>
      <point x="375" y="875" type="line"/>
      <point x="625" y="875" type="line"/>
      <point x="625" y="375" type="line"/>
      <point x="625" y="-125" type="line"/>
    </contour>
  </outline>
</glyph>
<glyph name="SF200000" format="2">
  <advance width="1000"/>
  <unicode hex="2562"/>
  <outline>
    <contour>
      <point x="0" y="250" type="line"/>
      <point x="0" y="375" type="line"/>
      <point x="250" y="375" type="line"/>
      <point x="250" y="875" type="line"/>
      <point x="500" y="875" type="line"/>
      <point x="500" y="-125" type="line"/>
      <point x="250" y="-125" type="line"/>
      <point x="250" y="250" type="line"/>
    </contour>
    <contour>
      <point x="625" y="875" type="line"/>
      <point x="875" y="875" type="line"/>
      <point x="875" y="0" type="line"/>
      <point x="875" y="-125" type="line"/>
      <point x="625" y="-125" type="line"/>
      <point x="625" y="0" type="line"/>
    </contour>
  </outline>
</glyph>
<glyph name="SF460000" format="2">
  <advance width="1000"/>
  <unicode hex="2568"/>
  <outline>
    <contour>
      <point x="625" y="875" type="line"/>
      <point x="875" y="875" type="line"/>
      <point x="875" y="375" type="line"/>
      <point x="1000" y="375" type="line"/>
      <point x="1000" y="250" type="line"/>
      <point x="500" y="250" type="line"/>
      <point x="0" y="250" type="line"/>
      <point x="0" y="375" type="line"/>
      <point x="250" y="375" type="line"/>
      <point x="250" y="625" type="line"/>
      <point x="250" y="875" type="line"/>
      <point x="500" y="875" type="line"/>
      <point x="500" y="625" type="line"/>
      <point x="500" y="375" type="line"/>
      <point x="625" y="375" type="line"/>
    </contour>
  </outline>
</glyph>
<glyph name="SF540000" format="2">
  <advance width="1000"/>
  <unicode hex="256A"/>
  <outline>
    <contour>
      <point x="875" y="625" type="line"/>
      <point x="1000" y="625" type="line"/>
      <point x="1000" y="500" type="line"/>
      <point x="875" y="500" type="line"/>
      <point x="625" y="500" type="line"/>
      <point x="625" y="375" type="line"/>
      <point x="1000" y="375" type="line"/>
      <point x="1000" y="250" type="line"/>
      <point x="625" y="250" type="line"/>
      <point x="625" y="0" type="line"/>
      <point x="625" y="-125" type="line"/>
      <point x="375" y="-125" type="line"/>
      <point x="375" y="250" type="line"/>
      <point x="0" y="250" type="line"/>
      <point x="0" y="375" type="line"/>
      <point x="375" y="375" type="line"/>
      <point x="375" y="500" type="line"/>
      <point x="0" y="500" type="line"/>
      <point x="0" y="625" type="line"/>
      <point x="375" y="625" type="line"/>
      <point x="375" y="875" type="line"/>
      <point x="625" y="875" type="line"/>
      <point x="625" y="625" type="line"/>
    </contour>
  </outline>
</glyph>
<glyph name="SF530000" format="2">
  <advance width="1000"/>
  <unicode hex="256B"/>
  <outline>
    <contour>
      <point x="625" y="875" type="line"/>
      <point x="875" y="875" type="line"/>
      <point x="875" y="375" type="line"/>
      <point x="1000" y="375" type="line"/>
      <point x="1000" y="250" type="line"/>
      <point x="875" y="250" type="line"/>
      <point x="875" y="-125" type="line"/>
      <point x="625" y="-125" type="line"/>
      <point x="625" y="250" type="line"/>
      <point x="500" y="250" type="line"/>
      <point x="500" y="-125" type="line"/>
      <point x="250" y="-125" type="line"/>
      <point x="250" y="250" type="line"/>
      <point x="0" y="250" type="line"/>
      <point x="0" y="375" type="line"/>
      <point x="250" y="375" type="line"/>
      <point x="250" y="875" type="line"/>
      <point x="500" y="875" type="line"/>
      <point x="500" y="375" type="line"/>
      <point x="625" y="375" type="line"/>
    </contour>
  </outline>
</glyph>
<glyph name="upblock" format="2">
  <advance width="1000"/>
  <unicode hex="2580"/>
  <outline>
    <contour>
      <point x="1000" y="875" type="line"/>
      <point x="1000" y="375" type="line"/>
      <point x="0" y="375" type="line"/>
      <point x="0" y="875" type="line"/>
    </contour>
  </outline>
</glyph>
<glyph name="block" format="2">
  <advance width="1000"/>
  <unicode hex="2588"/>
  <outline>
    <contour>
      <point x="1000" y="0" type="line"/>
      <point x="1000" y="-125" type="line"/>
      <point x="375" y="-125" type="line"/>
      <point x="0" y="-125" type="line"/>
      <point x="0" y="875" type="line"/>
      <point x="375" y="875" type="line"/>
      <point x="875" y="875" type="line"/>
      <point x="1000" y="875" type="line"/>
      <point x="1000" y="375" type="line"/>
    </contour>
  </outline>
</glyph>
<glyph name="filledbox" format="2">
  <advance width="1000"/>
  <unicode hex="25A0"/>
  <outline>
    <contour>
      <point x="250" y="125" type="line"/>
      <point x="250" y="625" type="line"/>
      <point x="750" y="625" type="line"/>
      <point x="750" y="125" type="line"/>
    </contour>
  </outline>
</glyph>
<glyph name="triagup" format="2">
  <advance width="1000"/>
  <unicode hex="25B2"/>
  <outline>
    <contour>
      <point x="1000" y="375" type="line"/>
      <point x="1000" y="125" type="line"/>
      <point x="0" y="125" type="line"/>
      <point x="0" y="375" type="line"/>
      <point x="125" y="375" type="line"/>
      <point x="125" y="500" type="line"/>
      <point x="250" y="500" type="line"/>
      <point x="250" y="625" type="line"/>
      <point x="375" y="625" type="line"/>
      <point x="375" y="750" type="line"/>
      <point x="625" y="750" type="line"/>
      <point x="625" y="625" type="line"/>
      <point x="750" y="625" type="line"/>
      <point x="750" y="500" type="line"/>
      <point x="875" y="500" type="line"/>
      <point x="875" y="375" type="line"/>
    </contour>
  </outline>
</glyph>
<glyph name="triagdn" format="2">
  <advance width="1000"/>
  <unicode hex="25BC"/>
  <outline>
    <contour>
      <point x="0" y="500" type="line"/>
      <point x="0" y="750" type="line"/>
      <point x="1000" y="750" type="line"/>
      <point x="1000" y="500" type="line"/>
      <point x="875" y="500" type="line"/>
      <point x="875" y="375" type="line"/>
      <point x="750" y="375" type="line"/>
      <point x="750" y="250" type="line"/>
      <point x="625" y="250" type="line"/>
      <point x="625" y="125" type="line"/>
      <point x="375" y="125" type="line"/>
      <point x="375" y="250" type="line"/>
      <point x="250" y="250" type="line"/>
      <point x="250" y="375" type="line"/>
      <point x="125" y="375" type="line"/>
      <point x="125" y="500" type="line"/>
    </contour>
  </outline>
</glyph>
<glyph name="triaglf" format="2">
  <advance width="1000"/>
  <unicode hex="25C4"/>
  <outline>
    <contour>
      <point x="0" y="500" type="line"/>
      <point x="250" y="500" type="line"/>
      <point x="250" y="625" type="line"/>
      <point x="500" y="625" type="line"/>
      <point x="500" y="750" type="line"/>
      <point x="750" y="750" type="line"/>
      <point x="750" y="875" type="line"/>
      <point x="875" y="875" type="line"/>
      <point x="875" y="625" type="line"/>
      <point x="875" y="250" type="line"/>
      <point x="875" y="0" type="line"/>
      <point x="750" y="0" type="line"/>
      <point x="750" y="125" type="line"/>
      <point x="500" y="125" type="line"/>
      <point x="500" y="250" type="line"/>
      <point x="250" y="250" type="line"/>
      <point x="250" y="375" type="line"/>
      <point x="0" y="375" type="line"/>
    </contour>
  </outline>
</glyph>
